<svg xmlns="http://www.w3.org/2000/svg" viewBox="70 32 295 152" preserveAspectRatio="xMidYMid meet" version="1.0">
<defs>
<clipPath id="pjlMarkClip"><path d="M 80.394531 44.417969 L 361.230469 44.417969 L 361.230469 175.542969 L 80.394531 175.542969 Z M 80.394531 44.417969 " clip-rule="nonzero"/></clipPath>
</defs>
<g clip-path="url(#pjlMarkClip)">
<path stroke-linecap="butt" transform="matrix(0.749276, 0, 0, 0.749276, 80.395821, 44.419455)" fill="none" stroke-linejoin="miter" d="M -0.00172121 -0.00198358 L 374.807988 -0.00198358 L 374.807988 175.031554 L -0.00172121 175.031554 Z M -0.00172121 -0.00198358 " stroke="#ffffff" stroke-width="10" stroke-opacity="1" stroke-miterlimit="4"/>
</g>
<g fill="#ffffff" fill-opacity="1">
<g transform="translate(111.87609, 163.685633)"><g><path d="M 75.324219 -108.890625 L 14.273438 -108.890625 C 13.214844 -108.890625 10.570312 -108.496094 10.570312 -104.265625 L 10.570312 -93.824219 C 10.570312 -89.730469 13.214844 -89.332031 14.273438 -89.332031 L 71.890625 -89.332031 C 75.191406 -89.332031 77.570312 -88.40625 78.894531 -86.425781 C 80.347656 -84.441406 81.007812 -81.273438 81.007812 -76.910156 C 81.007812 -72.550781 80.347656 -69.378906 78.894531 -67.394531 C 77.570312 -65.414062 75.191406 -64.488281 71.890625 -64.488281 L 14.273438 -64.488281 C 13.214844 -64.488281 10.570312 -64.09375 10.570312 -59.996094 L 10.570312 -4.492188 C 10.570312 -0.394531 13.214844 0.132812 14.273438 0.132812 L 26.429688 0.132812 C 27.488281 0.132812 30.128906 -0.394531 30.128906 -4.492188 L 30.128906 -44.929688 L 75.324219 -45.0625 C 84.3125 -45.0625 90.785156 -47.839844 94.75 -53.386719 C 98.714844 -58.9375 100.566406 -66.867188 100.566406 -77.308594 L 100.566406 -76.515625 C 100.566406 -87.085938 98.714844 -95.015625 94.75 -100.433594 C 90.785156 -106.117188 84.3125 -108.890625 75.324219 -108.890625 Z M 75.324219 -108.890625 "/></g></g>
</g>
<g fill="#ffffff" fill-opacity="1">
<g transform="translate(180.563583, 161.739214)"><g><path d="M 42.117188 -104.292969 L 42.117188 -34.765625 C 42.117188 -25.671875 40.78125 -20.054688 34.496094 -20.054688 C 28.210938 -20.054688 26.875 -25.671875 26.875 -36.101562 L 2.808594 -36.101562 L 2.808594 -32.089844 C 2.808594 -10.429688 11.097656 1.871094 35.164062 1.871094 C 57.894531 1.871094 67.523438 -10.429688 67.523438 -31.824219 L 67.523438 -104.292969 Z M 42.117188 -104.292969 "/></g></g>
</g>
<g fill="#ffffff" fill-opacity="1">
<g transform="translate(256.769245, 161.739214)"><g><path d="M 68.859375 0 L 68.859375 -21.929688 L 32.089844 -21.929688 L 32.089844 -104.292969 L 6.683594 -104.292969 L 6.683594 0 Z M 68.859375 0 "/></g></g>
</g>
</svg>
