<svg xmlns="http://www.w3.org/2000/svg" xmlns:xlink="http://www.w3.org/1999/xlink" width="609" zoomAndPan="magnify" viewBox="0 0 456.75 258.74999" height="345" preserveAspectRatio="xMidYMid meet" version="1.0"><defs><g/><clipPath id="8b550ecc39"><path d="M 0.09375 0 L 456.40625 0 L 456.40625 258.5 L 0.09375 258.5 Z M 0.09375 0 " clip-rule="nonzero"/></clipPath><clipPath id="a81acff2af"><path d="M 80.394531 44.417969 L 361.230469 44.417969 L 361.230469 175.542969 L 80.394531 175.542969 Z M 80.394531 44.417969 " clip-rule="nonzero"/></clipPath></defs><g clip-path="url(#a81acff2af)"><path stroke-linecap="butt" transform="matrix(0.749276, 0, 0, 0.749276, 80.395821, 44.419455)" fill="none" stroke-linejoin="miter" d="M -0.00172121 -0.00198358 L 374.807988 -0.00198358 L 374.807988 175.031554 L -0.00172121 175.031554 Z M -0.00172121 -0.00198358 " stroke="#ffffff" stroke-width="10" stroke-opacity="1" stroke-miterlimit="4"/></g><g fill="#ffffff" fill-opacity="1"><g transform="translate(102.955131, 205.321249)"><g><path d="M 1.859375 0 C 1.679688 0 1.59375 -0.0820312 1.59375 -0.25 L 1.59375 -17.765625 C 1.59375 -17.941406 1.679688 -18.03125 1.859375 -18.03125 L 3.8125 -18.03125 C 3.976562 -18.03125 4.0625 -17.941406 4.0625 -17.765625 L 4.0625 -2.234375 C 4.0625 -2.171875 4.097656 -2.140625 4.171875 -2.140625 L 9.9375 -2.140625 C 10.113281 -2.140625 10.203125 -2.050781 10.203125 -1.875 L 10.203125 -0.25 C 10.203125 -0.0820312 10.113281 0 9.9375 0 Z M 1.859375 0 "/></g></g></g><g fill="#ffffff" fill-opacity="1"><g transform="translate(121.680801, 205.321249)"><g><path d="M 8.65625 0 C 8.5 0 8.40625 -0.078125 8.375 -0.234375 L 7.796875 -3.1875 C 7.796875 -3.226562 7.78125 -3.253906 7.75 -3.265625 C 7.726562 -3.285156 7.703125 -3.296875 7.671875 -3.296875 L 3.46875 -3.296875 C 3.4375 -3.296875 3.40625 -3.285156 3.375 -3.265625 C 3.351562 -3.253906 3.34375 -3.226562 3.34375 -3.1875 L 2.8125 -0.234375 C 2.789062 -0.078125 2.695312 0 2.53125 0 L 0.5625 0 C 0.476562 0 0.414062 -0.0234375 0.375 -0.078125 C 0.332031 -0.128906 0.316406 -0.195312 0.328125 -0.28125 L 4.171875 -17.796875 C 4.203125 -17.953125 4.296875 -18.03125 4.453125 -18.03125 L 6.75 -18.03125 C 6.914062 -18.03125 7.007812 -17.953125 7.03125 -17.796875 L 10.890625 -0.28125 L 10.890625 -0.234375 C 10.890625 -0.078125 10.8125 0 10.65625 0 Z M 3.78125 -5.359375 C 3.78125 -5.285156 3.804688 -5.25 3.859375 -5.25 L 7.28125 -5.25 C 7.332031 -5.25 7.359375 -5.285156 7.359375 -5.359375 L 5.609375 -14.5 C 5.597656 -14.53125 5.582031 -14.546875 5.5625 -14.546875 C 5.539062 -14.546875 5.523438 -14.53125 5.515625 -14.5 Z M 3.78125 -5.359375 "/></g></g></g><g fill="#ffffff" fill-opacity="1"><g transform="translate(141.153394, 205.321249)"><g><path d="M 8.859375 -17.765625 C 8.859375 -17.941406 8.941406 -18.03125 9.109375 -18.03125 L 11.046875 -18.03125 C 11.210938 -18.03125 11.296875 -17.941406 11.296875 -17.765625 L 11.296875 -0.25 C 11.296875 -0.0820312 11.210938 0 11.046875 0 L 8.828125 0 C 8.691406 0 8.597656 -0.0664062 8.546875 -0.203125 L 4.171875 -11.96875 C 4.148438 -12.007812 4.125 -12.023438 4.09375 -12.015625 C 4.0625 -12.003906 4.046875 -11.984375 4.046875 -11.953125 L 4.0625 -0.25 C 4.0625 -0.0820312 3.976562 0 3.8125 0 L 1.859375 0 C 1.679688 0 1.59375 -0.0820312 1.59375 -0.25 L 1.59375 -17.765625 C 1.59375 -17.941406 1.679688 -18.03125 1.859375 -18.03125 L 4.046875 -18.03125 C 4.179688 -18.03125 4.273438 -17.957031 4.328125 -17.8125 L 8.734375 -6.046875 C 8.742188 -5.992188 8.765625 -5.972656 8.796875 -5.984375 C 8.835938 -5.992188 8.859375 -6.023438 8.859375 -6.078125 Z M 8.859375 -17.765625 "/></g></g></g><g fill="#ffffff" fill-opacity="1"><g transform="translate(162.300102, 205.321249)"><g><path d="M 1.859375 0 C 1.679688 0 1.59375 -0.0820312 1.59375 -0.25 L 1.59375 -17.765625 C 1.59375 -17.941406 1.679688 -18.03125 1.859375 -18.03125 L 6.078125 -18.03125 C 7.503906 -18.03125 8.632812 -17.59375 9.46875 -16.71875 C 10.3125 -15.84375 10.734375 -14.65625 10.734375 -13.15625 L 10.734375 -4.859375 C 10.734375 -3.367188 10.3125 -2.1875 9.46875 -1.3125 C 8.632812 -0.4375 7.503906 0 6.078125 0 Z M 4.0625 -2.234375 C 4.0625 -2.171875 4.097656 -2.140625 4.171875 -2.140625 L 6.046875 -2.15625 C 6.703125 -2.15625 7.226562 -2.410156 7.625 -2.921875 C 8.019531 -3.429688 8.222656 -4.125 8.234375 -5 L 8.234375 -13.03125 C 8.234375 -13.90625 8.035156 -14.597656 7.640625 -15.109375 C 7.253906 -15.628906 6.722656 -15.890625 6.046875 -15.890625 L 4.171875 -15.890625 C 4.097656 -15.890625 4.0625 -15.851562 4.0625 -15.78125 Z M 4.0625 -2.234375 "/></g></g></g><g fill="#ffffff" fill-opacity="1"><g transform="translate(182.622624, 205.321249)"><g/></g></g><g fill="#ffffff" fill-opacity="1"><g transform="translate(196.016845, 205.321249)"><g><path d="M 5.515625 0.203125 C 4.148438 0.203125 3.050781 -0.21875 2.21875 -1.0625 C 1.394531 -1.914062 0.984375 -3.03125 0.984375 -4.40625 L 0.984375 -5.078125 C 0.984375 -5.242188 1.066406 -5.328125 1.234375 -5.328125 L 3.140625 -5.328125 C 3.316406 -5.328125 3.40625 -5.242188 3.40625 -5.078125 L 3.40625 -4.53125 C 3.40625 -3.738281 3.597656 -3.109375 3.984375 -2.640625 C 4.378906 -2.171875 4.890625 -1.9375 5.515625 -1.9375 C 6.128906 -1.9375 6.632812 -2.160156 7.03125 -2.609375 C 7.4375 -3.066406 7.640625 -3.664062 7.640625 -4.40625 C 7.640625 -4.90625 7.53125 -5.34375 7.3125 -5.71875 C 7.101562 -6.09375 6.820312 -6.429688 6.46875 -6.734375 C 6.125 -7.035156 5.554688 -7.476562 4.765625 -8.0625 C 3.890625 -8.707031 3.203125 -9.257812 2.703125 -9.71875 C 2.203125 -10.1875 1.78125 -10.75 1.4375 -11.40625 C 1.09375 -12.0625 0.921875 -12.828125 0.921875 -13.703125 C 0.921875 -15.085938 1.332031 -16.1875 2.15625 -17 C 2.988281 -17.820312 4.0625 -18.234375 5.375 -18.234375 C 6.75 -18.234375 7.851562 -17.796875 8.6875 -16.921875 C 9.519531 -16.046875 9.9375 -14.894531 9.9375 -13.46875 L 9.9375 -12.828125 C 9.9375 -12.648438 9.851562 -12.5625 9.6875 -12.5625 L 7.78125 -12.5625 C 7.601562 -12.5625 7.515625 -12.648438 7.515625 -12.828125 L 7.515625 -13.515625 C 7.515625 -14.285156 7.316406 -14.90625 6.921875 -15.375 C 6.523438 -15.851562 6.007812 -16.09375 5.375 -16.09375 C 4.78125 -16.09375 4.289062 -15.878906 3.90625 -15.453125 C 3.53125 -15.035156 3.34375 -14.453125 3.34375 -13.703125 C 3.34375 -13.015625 3.53125 -12.429688 3.90625 -11.953125 C 4.289062 -11.484375 5.023438 -10.851562 6.109375 -10.0625 C 7.128906 -9.289062 7.898438 -8.664062 8.421875 -8.1875 C 8.953125 -7.707031 9.359375 -7.179688 9.640625 -6.609375 C 9.921875 -6.035156 10.0625 -5.351562 10.0625 -4.5625 C 10.0625 -3.113281 9.640625 -1.957031 8.796875 -1.09375 C 7.960938 -0.226562 6.867188 0.203125 5.515625 0.203125 Z M 5.515625 0.203125 "/></g></g></g><g fill="#ffffff" fill-opacity="1"><g transform="translate(215.231877, 205.321249)"><g><path d="M 10.21875 -16.140625 C 10.21875 -15.972656 10.132812 -15.890625 9.96875 -15.890625 L 4.171875 -15.890625 C 4.097656 -15.890625 4.0625 -15.851562 4.0625 -15.78125 L 4.0625 -10.203125 C 4.0625 -10.128906 4.097656 -10.09375 4.171875 -10.09375 L 7.71875 -10.09375 C 7.894531 -10.09375 7.984375 -10.007812 7.984375 -9.84375 L 7.984375 -8.21875 C 7.984375 -8.039062 7.894531 -7.953125 7.71875 -7.953125 L 4.171875 -7.953125 C 4.097656 -7.953125 4.0625 -7.921875 4.0625 -7.859375 L 4.0625 -2.234375 C 4.0625 -2.171875 4.097656 -2.140625 4.171875 -2.140625 L 9.96875 -2.140625 C 10.132812 -2.140625 10.21875 -2.050781 10.21875 -1.875 L 10.21875 -0.25 C 10.21875 -0.0820312 10.132812 0 9.96875 0 L 1.859375 0 C 1.679688 0 1.59375 -0.0820312 1.59375 -0.25 L 1.59375 -17.765625 C 1.59375 -17.941406 1.679688 -18.03125 1.859375 -18.03125 L 9.96875 -18.03125 C 10.132812 -18.03125 10.21875 -17.941406 10.21875 -17.765625 Z M 10.21875 -16.140625 "/></g></g></g><g fill="#ffffff" fill-opacity="1"><g transform="translate(234.601456, 205.321249)"><g><path d="M 8.75 0 C 8.59375 0 8.492188 -0.0664062 8.453125 -0.203125 L 6.078125 -7.875 C 6.054688 -7.925781 6.019531 -7.953125 5.96875 -7.953125 L 4.171875 -7.953125 C 4.097656 -7.953125 4.0625 -7.921875 4.0625 -7.859375 L 4.0625 -0.25 C 4.0625 -0.0820312 3.976562 0 3.8125 0 L 1.859375 0 C 1.679688 0 1.59375 -0.0820312 1.59375 -0.25 L 1.59375 -17.765625 C 1.59375 -17.941406 1.679688 -18.03125 1.859375 -18.03125 L 6.46875 -18.03125 C 7.34375 -18.03125 8.113281 -17.8125 8.78125 -17.375 C 9.445312 -16.945312 9.960938 -16.34375 10.328125 -15.5625 C 10.703125 -14.78125 10.890625 -13.894531 10.890625 -12.90625 C 10.890625 -11.820312 10.664062 -10.878906 10.21875 -10.078125 C 9.769531 -9.285156 9.160156 -8.707031 8.390625 -8.34375 C 8.335938 -8.289062 8.320312 -8.238281 8.34375 -8.1875 L 10.96875 -0.28125 L 11 -0.1875 C 11 -0.0625 10.921875 0 10.765625 0 Z M 4.171875 -15.890625 C 4.097656 -15.890625 4.0625 -15.851562 4.0625 -15.78125 L 4.0625 -10.015625 C 4.0625 -9.941406 4.097656 -9.90625 4.171875 -9.90625 L 6.078125 -9.90625 C 6.773438 -9.90625 7.335938 -10.175781 7.765625 -10.71875 C 8.203125 -11.257812 8.421875 -11.976562 8.421875 -12.875 C 8.421875 -13.800781 8.203125 -14.535156 7.765625 -15.078125 C 7.335938 -15.617188 6.773438 -15.890625 6.078125 -15.890625 Z M 4.171875 -15.890625 "/></g></g></g><g fill="#ffffff" fill-opacity="1"><g transform="translate(254.5119, 205.321249)"><g><path d="M 4.796875 0 C 4.640625 0 4.539062 -0.078125 4.5 -0.234375 L 0.796875 -17.734375 L 0.796875 -17.796875 C 0.796875 -17.953125 0.875 -18.03125 1.03125 -18.03125 L 3.171875 -18.03125 C 3.335938 -18.03125 3.429688 -17.953125 3.453125 -17.796875 L 5.890625 -4.421875 C 5.910156 -4.390625 5.925781 -4.375 5.9375 -4.375 C 5.957031 -4.375 5.976562 -4.390625 6 -4.421875 L 8.390625 -17.796875 C 8.429688 -17.953125 8.523438 -18.03125 8.671875 -18.03125 L 10.734375 -18.03125 C 10.921875 -18.03125 11 -17.929688 10.96875 -17.734375 L 7.265625 -0.234375 C 7.242188 -0.078125 7.148438 0 6.984375 0 Z M 4.796875 0 "/></g></g></g><g fill="#ffffff" fill-opacity="1"><g transform="translate(274.525352, 205.321249)"><g><path d="M 1.859375 0 C 1.679688 0 1.59375 -0.0820312 1.59375 -0.25 L 1.59375 -17.765625 C 1.59375 -17.941406 1.679688 -18.03125 1.859375 -18.03125 L 3.8125 -18.03125 C 3.976562 -18.03125 4.0625 -17.941406 4.0625 -17.765625 L 4.0625 -0.25 C 4.0625 -0.0820312 3.976562 0 3.8125 0 Z M 1.859375 0 "/></g></g></g><g fill="#ffffff" fill-opacity="1"><g transform="translate(288.434686, 205.321249)"><g><path d="M 5.875 0.203125 C 4.476562 0.203125 3.351562 -0.21875 2.5 -1.0625 C 1.65625 -1.914062 1.234375 -3.046875 1.234375 -4.453125 L 1.234375 -13.59375 C 1.234375 -15 1.65625 -16.125 2.5 -16.96875 C 3.351562 -17.8125 4.476562 -18.234375 5.875 -18.234375 C 7.28125 -18.234375 8.40625 -17.8125 9.25 -16.96875 C 10.101562 -16.125 10.53125 -15 10.53125 -13.59375 L 10.53125 -13.1875 C 10.53125 -13.007812 10.445312 -12.921875 10.28125 -12.921875 L 8.3125 -12.828125 C 8.144531 -12.828125 8.0625 -12.910156 8.0625 -13.078125 L 8.0625 -13.75 C 8.0625 -14.457031 7.859375 -15.023438 7.453125 -15.453125 C 7.046875 -15.878906 6.519531 -16.09375 5.875 -16.09375 C 5.21875 -16.09375 4.691406 -15.878906 4.296875 -15.453125 C 3.898438 -15.023438 3.703125 -14.457031 3.703125 -13.75 L 3.703125 -4.28125 C 3.703125 -3.570312 3.898438 -3.003906 4.296875 -2.578125 C 4.691406 -2.148438 5.21875 -1.9375 5.875 -1.9375 C 6.519531 -1.9375 7.046875 -2.148438 7.453125 -2.578125 C 7.859375 -3.003906 8.0625 -3.570312 8.0625 -4.28125 L 8.0625 -4.9375 C 8.0625 -5.113281 8.144531 -5.203125 8.3125 -5.203125 L 10.28125 -5.09375 C 10.445312 -5.09375 10.53125 -5.007812 10.53125 -4.84375 L 10.53125 -4.453125 C 10.53125 -3.046875 10.101562 -1.914062 9.25 -1.0625 C 8.40625 -0.21875 7.28125 0.203125 5.875 0.203125 Z M 5.875 0.203125 "/></g></g></g><g fill="#ffffff" fill-opacity="1"><g transform="translate(308.319372, 205.321249)"><g><path d="M 10.21875 -16.140625 C 10.21875 -15.972656 10.132812 -15.890625 9.96875 -15.890625 L 4.171875 -15.890625 C 4.097656 -15.890625 4.0625 -15.851562 4.0625 -15.78125 L 4.0625 -10.203125 C 4.0625 -10.128906 4.097656 -10.09375 4.171875 -10.09375 L 7.71875 -10.09375 C 7.894531 -10.09375 7.984375 -10.007812 7.984375 -9.84375 L 7.984375 -8.21875 C 7.984375 -8.039062 7.894531 -7.953125 7.71875 -7.953125 L 4.171875 -7.953125 C 4.097656 -7.953125 4.0625 -7.921875 4.0625 -7.859375 L 4.0625 -2.234375 C 4.0625 -2.171875 4.097656 -2.140625 4.171875 -2.140625 L 9.96875 -2.140625 C 10.132812 -2.140625 10.21875 -2.050781 10.21875 -1.875 L 10.21875 -0.25 C 10.21875 -0.0820312 10.132812 0 9.96875 0 L 1.859375 0 C 1.679688 0 1.59375 -0.0820312 1.59375 -0.25 L 1.59375 -17.765625 C 1.59375 -17.941406 1.679688 -18.03125 1.859375 -18.03125 L 9.96875 -18.03125 C 10.132812 -18.03125 10.21875 -17.941406 10.21875 -17.765625 Z M 10.21875 -16.140625 "/></g></g></g><g fill="#ffffff" fill-opacity="1"><g transform="translate(327.688937, 205.321249)"><g><path d="M 5.515625 0.203125 C 4.148438 0.203125 3.050781 -0.21875 2.21875 -1.0625 C 1.394531 -1.914062 0.984375 -3.03125 0.984375 -4.40625 L 0.984375 -5.078125 C 0.984375 -5.242188 1.066406 -5.328125 1.234375 -5.328125 L 3.140625 -5.328125 C 3.316406 -5.328125 3.40625 -5.242188 3.40625 -5.078125 L 3.40625 -4.53125 C 3.40625 -3.738281 3.597656 -3.109375 3.984375 -2.640625 C 4.378906 -2.171875 4.890625 -1.9375 5.515625 -1.9375 C 6.128906 -1.9375 6.632812 -2.160156 7.03125 -2.609375 C 7.4375 -3.066406 7.640625 -3.664062 7.640625 -4.40625 C 7.640625 -4.90625 7.53125 -5.34375 7.3125 -5.71875 C 7.101562 -6.09375 6.820312 -6.429688 6.46875 -6.734375 C 6.125 -7.035156 5.554688 -7.476562 4.765625 -8.0625 C 3.890625 -8.707031 3.203125 -9.257812 2.703125 -9.71875 C 2.203125 -10.1875 1.78125 -10.75 1.4375 -11.40625 C 1.09375 -12.0625 0.921875 -12.828125 0.921875 -13.703125 C 0.921875 -15.085938 1.332031 -16.1875 2.15625 -17 C 2.988281 -17.820312 4.0625 -18.234375 5.375 -18.234375 C 6.75 -18.234375 7.851562 -17.796875 8.6875 -16.921875 C 9.519531 -16.046875 9.9375 -14.894531 9.9375 -13.46875 L 9.9375 -12.828125 C 9.9375 -12.648438 9.851562 -12.5625 9.6875 -12.5625 L 7.78125 -12.5625 C 7.601562 -12.5625 7.515625 -12.648438 7.515625 -12.828125 L 7.515625 -13.515625 C 7.515625 -14.285156 7.316406 -14.90625 6.921875 -15.375 C 6.523438 -15.851562 6.007812 -16.09375 5.375 -16.09375 C 4.78125 -16.09375 4.289062 -15.878906 3.90625 -15.453125 C 3.53125 -15.035156 3.34375 -14.453125 3.34375 -13.703125 C 3.34375 -13.015625 3.53125 -12.429688 3.90625 -11.953125 C 4.289062 -11.484375 5.023438 -10.851562 6.109375 -10.0625 C 7.128906 -9.289062 7.898438 -8.664062 8.421875 -8.1875 C 8.953125 -7.707031 9.359375 -7.179688 9.640625 -6.609375 C 9.921875 -6.035156 10.0625 -5.351562 10.0625 -4.5625 C 10.0625 -3.113281 9.640625 -1.957031 8.796875 -1.09375 C 7.960938 -0.226562 6.867188 0.203125 5.515625 0.203125 Z M 5.515625 0.203125 "/></g></g></g><g fill="#ffffff" fill-opacity="1"><g transform="translate(111.87609, 163.685633)"><g><path d="M 75.324219 -108.890625 L 14.273438 -108.890625 C 13.214844 -108.890625 10.570312 -108.496094 10.570312 -104.265625 L 10.570312 -93.824219 C 10.570312 -89.730469 13.214844 -89.332031 14.273438 -89.332031 L 71.890625 -89.332031 C 75.191406 -89.332031 77.570312 -88.40625 78.894531 -86.425781 C 80.347656 -84.441406 81.007812 -81.273438 81.007812 -76.910156 C 81.007812 -72.550781 80.347656 -69.378906 78.894531 -67.394531 C 77.570312 -65.414062 75.191406 -64.488281 71.890625 -64.488281 L 14.273438 -64.488281 C 13.214844 -64.488281 10.570312 -64.09375 10.570312 -59.996094 L 10.570312 -4.492188 C 10.570312 -0.394531 13.214844 0.132812 14.273438 0.132812 L 26.429688 0.132812 C 27.488281 0.132812 30.128906 -0.394531 30.128906 -4.492188 L 30.128906 -44.929688 L 75.324219 -45.0625 C 84.3125 -45.0625 90.785156 -47.839844 94.75 -53.386719 C 98.714844 -58.9375 100.566406 -66.867188 100.566406 -77.308594 L 100.566406 -76.515625 C 100.566406 -87.085938 98.714844 -95.015625 94.75 -100.433594 C 90.785156 -106.117188 84.3125 -108.890625 75.324219 -108.890625 Z M 75.324219 -108.890625 "/></g></g></g><g fill="#ffffff" fill-opacity="1"><g transform="translate(180.563583, 161.739214)"><g><path d="M 42.117188 -104.292969 L 42.117188 -34.765625 C 42.117188 -25.671875 40.78125 -20.054688 34.496094 -20.054688 C 28.210938 -20.054688 26.875 -25.671875 26.875 -36.101562 L 2.808594 -36.101562 L 2.808594 -32.089844 C 2.808594 -10.429688 11.097656 1.871094 35.164062 1.871094 C 57.894531 1.871094 67.523438 -10.429688 67.523438 -31.824219 L 67.523438 -104.292969 Z M 42.117188 -104.292969 "/></g></g></g><g fill="#ffffff" fill-opacity="1"><g transform="translate(256.769245, 161.739214)"><g><path d="M 68.859375 0 L 68.859375 -21.929688 L 32.089844 -21.929688 L 32.089844 -104.292969 L 6.683594 -104.292969 L 6.683594 0 Z M 68.859375 0 "/></g></g></g></svg>